<mxfile host="app.diagrams.net" agent="Mozilla/5.0 (Windows NT 10.0; Win64; x64) AppleWebKit/537.36 (KHTML, like Gecko) Chrome/137.0.0.0 Safari/537.36" version="27.1.5">
  <diagram name="PÃ¡gina-1" id="zpSUWQNznjp7fdwG8cLp">
    <mxGraphModel dx="1426" dy="777" grid="1" gridSize="10" guides="1" tooltips="1" connect="1" arrows="1" fold="1" page="1" pageScale="1" pageWidth="827" pageHeight="1169" math="0" shadow="0">
      <root>
        <mxCell id="0" />
        <mxCell id="1" parent="0" />
        <mxCell id="AswyMnCisHb2K3DWxLg2-1" value="NombreClase" style="swimlane;fontStyle=1;align=center;verticalAlign=top;childLayout=stackLayout;horizontal=1;startSize=26;horizontalStack=0;resizeParent=1;resizeParentMax=0;resizeLast=0;collapsible=1;marginBottom=0;whiteSpace=wrap;html=1;" vertex="1" parent="1">
          <mxGeometry x="40" y="30" width="290" height="130" as="geometry" />
        </mxCell>
        <mxCell id="AswyMnCisHb2K3DWxLg2-2" value="- atributo1: Tipo&lt;div&gt;-atributo2: Tipo&lt;/div&gt;" style="text;strokeColor=none;fillColor=none;align=left;verticalAlign=top;spacingLeft=4;spacingRight=4;overflow=hidden;rotatable=0;points=[[0,0.5],[1,0.5]];portConstraint=eastwest;whiteSpace=wrap;html=1;" vertex="1" parent="AswyMnCisHb2K3DWxLg2-1">
          <mxGeometry y="26" width="290" height="44" as="geometry" />
        </mxCell>
        <mxCell id="AswyMnCisHb2K3DWxLg2-3" value="" style="line;strokeWidth=1;fillColor=none;align=left;verticalAlign=middle;spacingTop=-1;spacingLeft=3;spacingRight=3;rotatable=0;labelPosition=right;points=[];portConstraint=eastwest;strokeColor=inherit;" vertex="1" parent="AswyMnCisHb2K3DWxLg2-1">
          <mxGeometry y="70" width="290" height="8" as="geometry" />
        </mxCell>
        <mxCell id="AswyMnCisHb2K3DWxLg2-4" value="+ metodo1():TipoRetorno&lt;div&gt;+ metodo2(parametro: Tipo): Retorno&lt;/div&gt;" style="text;strokeColor=none;fillColor=none;align=left;verticalAlign=top;spacingLeft=4;spacingRight=4;overflow=hidden;rotatable=0;points=[[0,0.5],[1,0.5]];portConstraint=eastwest;whiteSpace=wrap;html=1;" vertex="1" parent="AswyMnCisHb2K3DWxLg2-1">
          <mxGeometry y="78" width="290" height="52" as="geometry" />
        </mxCell>
        <mxCell id="AswyMnCisHb2K3DWxLg2-5" value="&lt;h1 style=&quot;margin-top: 0px;&quot;&gt;Ambito&lt;/h1&gt;&lt;div&gt;&lt;font style=&quot;font-size: 18px;&quot;&gt;&lt;b&gt;+ = publico&lt;/b&gt;&lt;/font&gt;&lt;/div&gt;&lt;div&gt;&lt;font size=&quot;3&quot;&gt;&lt;b&gt;- = privado&lt;/b&gt;&lt;/font&gt;&lt;/div&gt;&lt;div&gt;&lt;font size=&quot;3&quot;&gt;&lt;b&gt;# = protegido&lt;/b&gt;&lt;/font&gt;&lt;/div&gt;" style="text;html=1;whiteSpace=wrap;overflow=hidden;rounded=0;" vertex="1" parent="1">
          <mxGeometry x="40" y="190" width="180" height="120" as="geometry" />
        </mxCell>
        <mxCell id="AswyMnCisHb2K3DWxLg2-6" value="name" style="endArrow=block;endFill=1;html=1;edgeStyle=orthogonalEdgeStyle;align=left;verticalAlign=top;rounded=0;" edge="1" parent="1">
          <mxGeometry x="-1" relative="1" as="geometry">
            <mxPoint x="180" y="210" as="sourcePoint" />
            <mxPoint x="340" y="210" as="targetPoint" />
          </mxGeometry>
        </mxCell>
        <mxCell id="AswyMnCisHb2K3DWxLg2-7" value="1" style="edgeLabel;resizable=0;html=1;align=left;verticalAlign=bottom;" connectable="0" vertex="1" parent="AswyMnCisHb2K3DWxLg2-6">
          <mxGeometry x="-1" relative="1" as="geometry" />
        </mxCell>
        <mxCell id="AswyMnCisHb2K3DWxLg2-8" value="Herencia :&amp;nbsp;" style="text;html=1;align=center;verticalAlign=middle;whiteSpace=wrap;rounded=0;" vertex="1" parent="1">
          <mxGeometry x="370" y="190" width="80" height="30" as="geometry" />
        </mxCell>
        <mxCell id="AswyMnCisHb2K3DWxLg2-9" value="Empleado" style="text;html=1;align=center;verticalAlign=middle;whiteSpace=wrap;rounded=0;" vertex="1" parent="1">
          <mxGeometry x="470" y="190" width="80" height="30" as="geometry" />
        </mxCell>
        <mxCell id="AswyMnCisHb2K3DWxLg2-10" value="Herencia" style="endArrow=block;endFill=1;html=1;edgeStyle=orthogonalEdgeStyle;align=left;verticalAlign=top;rounded=0;" edge="1" parent="1">
          <mxGeometry x="-1" relative="1" as="geometry">
            <mxPoint x="560" y="204.5" as="sourcePoint" />
            <mxPoint x="670" y="204.5" as="targetPoint" />
          </mxGeometry>
        </mxCell>
        <mxCell id="AswyMnCisHb2K3DWxLg2-11" value="1" style="edgeLabel;resizable=0;html=1;align=left;verticalAlign=bottom;" connectable="0" vertex="1" parent="AswyMnCisHb2K3DWxLg2-10">
          <mxGeometry x="-1" relative="1" as="geometry" />
        </mxCell>
        <mxCell id="AswyMnCisHb2K3DWxLg2-12" value="Composicion" style="text;html=1;align=center;verticalAlign=middle;whiteSpace=wrap;rounded=0;" vertex="1" parent="1">
          <mxGeometry x="374" y="260" width="80" height="30" as="geometry" />
        </mxCell>
        <mxCell id="AswyMnCisHb2K3DWxLg2-13" value="Coche" style="text;html=1;align=center;verticalAlign=middle;whiteSpace=wrap;rounded=0;" vertex="1" parent="1">
          <mxGeometry x="474" y="260" width="80" height="30" as="geometry" />
        </mxCell>
        <mxCell id="AswyMnCisHb2K3DWxLg2-14" value="Motor" style="text;html=1;align=center;verticalAlign=middle;whiteSpace=wrap;rounded=0;" vertex="1" parent="1">
          <mxGeometry x="674" y="260" width="80" height="30" as="geometry" />
        </mxCell>
        <mxCell id="AswyMnCisHb2K3DWxLg2-15" value="1" style="endArrow=open;html=1;endSize=12;startArrow=diamondThin;startSize=14;startFill=1;edgeStyle=orthogonalEdgeStyle;align=left;verticalAlign=bottom;rounded=0;" edge="1" parent="1">
          <mxGeometry x="-1" y="3" relative="1" as="geometry">
            <mxPoint x="180" y="274.5" as="sourcePoint" />
            <mxPoint x="340" y="274.5" as="targetPoint" />
          </mxGeometry>
        </mxCell>
        <mxCell id="AswyMnCisHb2K3DWxLg2-16" value="1" style="endArrow=open;html=1;endSize=12;startArrow=diamondThin;startSize=14;startFill=1;edgeStyle=orthogonalEdgeStyle;align=left;verticalAlign=bottom;rounded=0;" edge="1" parent="1">
          <mxGeometry x="-1" y="3" relative="1" as="geometry">
            <mxPoint x="560" y="274.5" as="sourcePoint" />
            <mxPoint x="670" y="274.5" as="targetPoint" />
          </mxGeometry>
        </mxCell>
        <mxCell id="AswyMnCisHb2K3DWxLg2-17" value="Agregacion" style="text;html=1;align=center;verticalAlign=middle;whiteSpace=wrap;rounded=0;" vertex="1" parent="1">
          <mxGeometry x="374" y="330" width="80" height="30" as="geometry" />
        </mxCell>
        <mxCell id="AswyMnCisHb2K3DWxLg2-18" value="Curso" style="text;html=1;align=center;verticalAlign=middle;whiteSpace=wrap;rounded=0;" vertex="1" parent="1">
          <mxGeometry x="474" y="330" width="80" height="30" as="geometry" />
        </mxCell>
        <mxCell id="AswyMnCisHb2K3DWxLg2-19" value="Profesor" style="text;html=1;align=center;verticalAlign=middle;whiteSpace=wrap;rounded=0;" vertex="1" parent="1">
          <mxGeometry x="674" y="330" width="80" height="30" as="geometry" />
        </mxCell>
        <mxCell id="AswyMnCisHb2K3DWxLg2-20" value="1" style="endArrow=open;html=1;endSize=12;startArrow=diamondThin;startSize=14;startFill=0;edgeStyle=orthogonalEdgeStyle;align=left;verticalAlign=bottom;rounded=0;" edge="1" parent="1">
          <mxGeometry x="-1" y="3" relative="1" as="geometry">
            <mxPoint x="180" y="344.5" as="sourcePoint" />
            <mxPoint x="340" y="344.5" as="targetPoint" />
          </mxGeometry>
        </mxCell>
        <mxCell id="AswyMnCisHb2K3DWxLg2-21" value="1" style="endArrow=open;html=1;endSize=12;startArrow=diamondThin;startSize=14;startFill=0;edgeStyle=orthogonalEdgeStyle;align=left;verticalAlign=bottom;rounded=0;" edge="1" parent="1">
          <mxGeometry x="-1" y="3" relative="1" as="geometry">
            <mxPoint x="564" y="344.5" as="sourcePoint" />
            <mxPoint x="674" y="344.5" as="targetPoint" />
          </mxGeometry>
        </mxCell>
        <mxCell id="AswyMnCisHb2K3DWxLg2-22" value="Empleado" style="text;html=1;align=center;verticalAlign=middle;whiteSpace=wrap;rounded=0;" vertex="1" parent="1">
          <mxGeometry x="670" y="190" width="80" height="30" as="geometry" />
        </mxCell>
      </root>
    </mxGraphModel>
  </diagram>
</mxfile>
